<?xml version="1.0" standalone="no"?>
<!DOCTYPE svg PUBLIC "-//W3C//DTD SVG 20010904//EN"
 "http://www.w3.org/TR/2001/REC-SVG-20010904/DTD/svg10.dtd">
<svg version="1.0" xmlns="http://www.w3.org/2000/svg"
 width="512.000000pt" height="512.000000pt" viewBox="0 0 512.000000 512.000000"
 preserveAspectRatio="xMidYMid meet">

<g transform="translate(0.000000,512.000000) scale(0.100000,-0.100000)"
fill="#000000" stroke="none">
<path d="M1013 4836 c-278 -53 -494 -216 -613 -461 -53 -111 -77 -193 -86
-305 -9 -105 13 -409 37 -509 23 -98 81 -226 132 -294 21 -26 37 -51 37 -55 0
-4 -25 -20 -55 -35 -206 -101 -370 -304 -437 -542 l-23 -80 -3 -929 c-2 -610
1 -947 8 -984 34 -183 185 -333 366 -362 78 -13 1510 -13 1588 0 183 30 336
183 366 366 6 33 10 125 10 207 l0 147 220 0 220 0 0 -147 c0 -82 4 -174 10
-207 30 -183 183 -336 366 -366 78 -13 1510 -13 1588 0 181 29 332 179 366
362 7 37 10 374 8 984 l-3 929 -23 80 c-67 238 -231 441 -437 542 -30 15 -55
31 -55 35 0 4 16 29 37 55 51 68 109 196 132 294 24 100 46 404 37 509 -9 112
-33 194 -86 305 -107 221 -303 381 -545 447 -115 31 -336 30 -450 -1 -103 -28
-243 -98 -323 -162 -159 -127 -274 -333 -303 -545 -16 -109 3 -436 32 -556 23
-95 82 -224 134 -292 19 -25 35 -50 35 -55 0 -5 -14 -14 -32 -22 -57 -23 -172
-105 -233 -166 -107 -105 -185 -239 -228 -393 -20 -72 -21 -101 -24 -702 l-4
-628 -219 0 -219 0 -4 628 c-3 601 -4 630 -24 702 -43 154 -121 288 -228 393
-61 61 -176 143 -233 166 -18 8 -32 17 -32 22 0 5 16 30 35 55 52 68 111 197
134 292 29 120 48 447 32 556 -29 212 -144 418 -303 545 -81 65 -221 135 -323
162 -103 26 -284 34 -382 15z m349 -319 c180 -66 311 -212 354 -394 26 -111 4
-445 -36 -551 -95 -250 -359 -401 -608 -348 -242 51 -408 228 -441 471 -17
128 -24 346 -12 410 30 159 149 314 296 385 101 49 155 60 280 56 75 -3 117
-10 167 -29z m2704 22 c32 -6 95 -28 139 -49 147 -70 266 -226 296 -385 12
-64 5 -282 -12 -410 -26 -194 -142 -352 -314 -431 -287 -132 -621 8 -735 308
-40 106 -62 440 -36 552 25 105 77 195 157 270 137 130 312 180 505 145z
m-3138 -1589 c146 -46 338 -45 486 1 37 11 84 19 104 17 l37 -3 -59 -62 c-82
-87 -168 -132 -286 -148 -63 -9 -163 9 -229 42 -52 24 -191 145 -191 165 0 15
73 8 138 -12z m2817 -9 c63 -18 106 -23 205 -23 99 0 142 5 205 23 90 25 175
36 175 22 0 -21 -138 -141 -191 -166 -126 -62 -282 -56 -408 16 -40 22 -137
112 -153 141 -9 17 -6 18 39 14 26 -3 84 -15 128 -27z m-3086 -280 c184 -179
452 -250 696 -186 86 23 211 86 276 140 31 25 91 87 134 136 l78 90 39 -38
c52 -50 95 -119 127 -201 l26 -67 3 -618 3 -618 -329 3 -329 3 -41 27 c-22 15
-53 49 -68 75 -26 43 -28 57 -33 189 -5 123 -9 146 -27 170 -35 47 -67 66
-116 66 -56 0 -99 -22 -130 -64 -20 -29 -23 -47 -27 -150 -2 -65 2 -148 9
-185 33 -194 192 -370 377 -418 45 -12 128 -15 386 -15 l328 0 -3 -164 c-3
-180 -7 -192 -72 -240 -27 -21 -38 -21 -783 -24 -741 -2 -757 -2 -798 18 -27
13 -49 34 -63 59 l-23 40 3 923 3 923 23 59 c30 81 67 142 121 199 l45 49 55
-64 c30 -34 80 -87 110 -117z m2786 -5 c178 -174 449 -245 690 -181 88 24 212
87 280 144 33 27 93 88 134 136 l74 86 39 -38 c52 -50 95 -119 127 -201 l26
-67 3 -923 3 -923 -23 -40 c-14 -25 -36 -46 -63 -59 -41 -20 -57 -20 -798 -18
-745 3 -756 3 -783 24 -65 48 -69 60 -72 240 l-3 164 339 0 c280 0 348 3 393
16 175 52 319 197 363 369 9 33 16 101 16 154 l0 95 93 -92 c51 -50 106 -96
121 -102 125 -47 243 71 195 197 -13 36 -473 498 -515 518 -40 19 -97 19 -132
1 -15 -8 -138 -126 -273 -263 -226 -227 -248 -252 -254 -290 -9 -56 20 -122
67 -151 39 -24 105 -29 141 -11 12 6 75 63 140 127 l117 117 0 -108 c0 -118
-12 -162 -58 -211 -60 -63 -74 -66 -430 -66 l-323 0 3 618 c3 611 4 618 26
676 30 81 67 142 121 199 l46 49 59 -68 c33 -38 83 -91 111 -118z"/>
</g>
</svg>
