<?xml version="1.0" encoding="utf-8"?>
<!-- Svg Vector Icons : http://www.onlinewebfonts.com/icon -->
<!DOCTYPE svg PUBLIC "-//W3C//DTD SVG 1.1//EN" "http://www.w3.org/Graphics/SVG/1.1/DTD/svg11.dtd">
<svg version="1.1" xmlns="http://www.w3.org/2000/svg" xmlns:xlink="http://www.w3.org/1999/xlink" x="0px" y="0px" viewBox="0 0 1000 1000" enable-background="new 0 0 1000 1000" xml:space="preserve">
<metadata> Svg Vector Icons : http://www.onlinewebfonts.com/icon </metadata>
<g><path d="M984.3,155.2L855,53.1c-4-3.3-9-5.7-14.6-5.7c-5.7,0-10.8,2.4-14.8,5.9L355,658c0,0-185-177.9-190.2-183.1c-5.2-5.2-12-13.9-22.4-13.9c-10.4,0-15.1,7.3-20.5,12.7c-4,4.2-70,73.5-102.5,107.9c-1.9,2.1-3.1,3.3-4.7,4.9c-2.8,4-4.7,8.5-4.7,13.4c0,5.2,1.9,9.4,4.7,13.4l6.6,6.1c0,0,328.2,315.3,333.7,320.7c5.4,5.4,12,12.3,21.7,12.3c9.4,0,17.2-10.1,21.7-14.6l587-754c2.8-4,4.7-8.5,4.7-13.7C990,164.3,987.6,159.4,984.3,155.2z"/></g>
</svg>