<?xml version="1.0" encoding="utf-8"?>
<!-- Svg Vector Icons : http://www.onlinewebfonts.com/icon -->
<!DOCTYPE svg PUBLIC "-//W3C//DTD SVG 1.1//EN" "http://www.w3.org/Graphics/SVG/1.1/DTD/svg11.dtd">
<svg version="1.1" xmlns="http://www.w3.org/2000/svg" xmlns:xlink="http://www.w3.org/1999/xlink" x="0px" y="0px" viewBox="0 0 1000 1000" enable-background="new 0 0 1000 1000" xml:space="preserve">
<metadata> Svg Vector Icons : http://www.onlinewebfonts.com/icon </metadata>
<g><g transform="translate(0.000000,511.000000) scale(0.100000,-0.100000)"><path d="M4672.1,4996.2c-1642.8-202.5-3111.7-1493.4-3531-3105.5c-114.6-443.9-133-738.5-98.2-1507.7c57.3-1217.3,120.7-1683.7,292.5-2154.2c182.1-499.2,425.5-752.8,902.2-943.1c443.9-176,585.1-339.6,787.6-920.6c69.6-202.5,153.4-421.4,184.1-484.8c149.3-304.8,527.8-519.6,1074-607.6c474.6-79.8,881.7-81.8,1360.4-14.3c597.4,85.9,996.3,308.9,1153.8,642.4c32.7,67.5,112.5,276.2,175.9,462.3c159.6,464.4,243.5,603.5,462.3,756.9c65.5,45,214.8,122.8,331.4,171.8c284.4,116.6,384.6,178,525.8,319.1c378.5,378.5,570.8,1057.7,634.2,2240.1c63.4,1188.6,61.4,1372.7-10.2,1767.6c-296.6,1620.3-1661.2,2997.1-3299.9,3328.5C5330.8,5004.4,4919.6,5026.9,4672.1,4996.2z M3655.3,145.7c112.5-22.5,259.8-65.5,329.4-98.2C4220-61,4293.6-179.6,4324.3-517.2c47-488.9-71.6-861.3-364.2-1139.5c-292.6-278.2-648.5-384.6-1098.6-325.3c-214.8,28.6-505.3,120.7-664.9,210.7c-175.9,102.3-374.4,308.9-427.6,454.2c-149.4,403-73.7,904.2,175.9,1153.8C2260.1,153.8,2982.3,282.7,3655.3,145.7z M7147.5,188.6c106.4-12.3,253.7-36.8,327.3-53.2c188.2-47.1,443.9-171.8,556.5-272.1c280.3-249.6,360-844.9,167.8-1237.7c-108.4-221-362.1-411.2-699.7-523.7c-572.8-190.2-1090.4-108.4-1454.6,233.2c-296.6,278.2-417.3,650.5-372.3,1139.5c32.7,343.7,104.3,464.4,339.6,570.8C6304.6,178.4,6734.2,231.6,7147.5,188.6z M5132.4-1671c126.8-57.3,200.5-159.6,296.6-405.1c47.1-120.7,126.8-327.3,178-456.2c145.2-370.3,137.1-499.2-40.9-642.4c-73.7-59.3-92.1-63.4-235.3-63.4c-88,0-216.8,4.1-290.5,8.2c-73.7,4.1-198.5,2-278.2-8.2c-165.7-18.4-259.8,4.1-358,85.9c-165.7,141.1-161.6,229.1,45,769.2c194.4,509.4,216.9,554.4,311,644.4C4872.6-1630.1,4995.3-1607.6,5132.4-1671z"/></g></g>
</svg>